<svg width="34" height="34" viewBox="0 0 34 34" fill="none" xmlns="http://www.w3.org/2000/svg">
<circle cx="17" cy="17" r="16.25" fill="#7D56A5" stroke="#252525" stroke-width="1.5"/>
<path d="M9.29289 16.2929C8.90237 16.6834 8.90237 17.3166 9.29289 17.7071L15.6569 24.0711C16.0474 24.4616 16.6805 24.4616 17.0711 24.0711C17.4616 23.6805 17.4616 23.0474 17.0711 22.6569L11.4142 17L17.0711 11.3431C17.4616 10.9526 17.4616 10.3195 17.0711 9.92893C16.6805 9.53841 16.0474 9.53841 15.6569 9.92893L9.29289 16.2929ZM23 18C23.5523 18 24 17.5523 24 17C24 16.4477 23.5523 16 23 16V18ZM10 18H23V16H10V18Z" fill="white"/>
</svg>
