<svg width="20" height="21" viewBox="0 0 20 21" fill="none" xmlns="http://www.w3.org/2000/svg">
<path d="M8.23955e-05 5.85923C8.23955e-05 4.67682 8.23955e-05 3.50035 8.23955e-05 2.31794C0.00602417 1.2603 0.760629 0.505698 1.81232 0.499756C3.70775 0.499756 5.59723 0.499756 7.49265 0.499756C8.54435 0.499756 9.29895 1.2603 9.29895 2.312C9.29895 4.68276 9.29895 7.04759 9.29895 9.41835C9.29895 10.4582 8.53841 11.2187 7.4986 11.2187C5.59723 11.2187 3.69586 11.2187 1.7945 11.2187C0.760629 11.2187 8.23955e-05 10.4522 -0.00585938 9.41835C8.23955e-05 8.23594 8.23955e-05 7.04759 8.23955e-05 5.85923ZM1.46176 5.84141C1.46176 6.97629 1.46176 8.11116 1.46176 9.25198C1.46176 9.66197 1.56871 9.76892 1.97275 9.77486C3.76122 9.77486 5.5497 9.77486 7.33817 9.77486C7.73627 9.77486 7.84322 9.66791 7.84916 9.27575C7.84916 7.00599 7.84916 4.7303 7.84916 2.46054C7.84916 2.08027 7.73627 1.96143 7.36194 1.96143C5.55564 1.96143 3.75528 1.96143 1.94898 1.96143C1.57465 1.96143 1.46176 2.07433 1.46176 2.46054C1.45582 3.58353 1.46176 4.71247 1.46176 5.84141Z" fill="#7D56A5"/>
<path d="M10.6953 15.1166C10.6953 13.9342 10.6953 12.7578 10.6953 11.5753C10.6953 10.5355 11.4559 9.76904 12.4897 9.76904C14.3911 9.76904 16.2925 9.76904 18.1938 9.76904C19.2277 9.76904 19.9942 10.5355 19.9942 11.5694C19.9942 13.9461 19.9942 16.3228 19.9942 18.6995C19.9942 19.7215 19.2277 20.4939 18.2117 20.4939C16.3043 20.4999 14.397 20.4939 12.4838 20.4939C11.4618 20.4939 10.6953 19.7275 10.6953 18.7055C10.6953 17.5112 10.6953 16.3169 10.6953 15.1166ZM12.157 15.1226C12.157 16.2753 12.157 17.422 12.157 18.5747C12.157 18.9194 12.2758 19.0382 12.6086 19.0382C14.4327 19.0382 16.2628 19.0382 18.0869 19.0382C18.4196 19.0382 18.5384 18.9194 18.5384 18.5747C18.5384 16.2812 18.5384 13.9877 18.5384 11.6942C18.5384 11.3436 18.4196 11.2307 18.0631 11.2307C16.2509 11.2307 14.4386 11.2307 12.6264 11.2307C12.2639 11.2307 12.151 11.3496 12.151 11.712C12.151 12.8469 12.157 13.9818 12.157 15.1226Z" fill="#7D56A5"/>
<path d="M15.33 8.3728C14.3793 8.3728 13.4286 8.3728 12.4779 8.3728C11.4678 8.36686 10.7013 7.60037 10.6954 6.59621C10.6894 5.1583 10.6894 3.71445 10.6954 2.27654C10.6954 1.27239 11.4678 0.499955 12.4779 0.499955C14.3912 0.499955 16.3103 0.494013 18.2236 0.499955C19.2218 0.499955 19.9883 1.27239 19.9942 2.26466C20.0002 3.71445 20.0002 5.1583 19.9942 6.6081C19.9942 7.60037 19.2218 8.36686 18.2236 8.3728C17.261 8.37874 16.2985 8.3728 15.33 8.3728ZM15.3715 1.95569C14.4684 1.95569 13.5593 1.95569 12.6562 1.95569C12.2699 1.95569 12.1571 2.06858 12.1571 2.43697C12.1571 3.76793 12.1571 5.09294 12.1571 6.4239C12.1571 6.79229 12.2699 6.91113 12.6324 6.91113C14.4446 6.91113 16.2569 6.91113 18.0691 6.91113C18.4316 6.91113 18.5445 6.79229 18.5445 6.4239C18.5445 5.09294 18.5445 3.76793 18.5445 2.43697C18.5445 2.06264 18.4316 1.94975 18.0453 1.94975C17.1541 1.95569 16.2628 1.95569 15.3715 1.95569Z" fill="#7D56A5"/>
<path d="M4.62864 20.494C3.67796 20.494 2.72727 20.494 1.77659 20.494C0.77243 20.4881 0.00594177 19.7216 0 18.7115C0 17.2736 0 15.8357 0 14.3918C0 13.3995 0.77243 12.6271 1.76471 12.6212C3.68984 12.6152 5.60903 12.6152 7.53416 12.6212C8.52644 12.6212 9.29293 13.3936 9.29887 14.3918C9.30481 15.8416 9.30481 17.2854 9.29887 18.7352C9.29887 19.7156 8.52644 20.4881 7.54605 20.494C6.57754 20.4999 5.60309 20.494 4.62864 20.494ZM4.62864 19.0383C5.53179 19.0383 6.44088 19.0383 7.34403 19.0383C7.7243 19.0383 7.84314 18.9254 7.84314 18.551C7.84314 17.2201 7.84314 15.8951 7.84314 14.5641C7.84314 14.1957 7.73024 14.0769 7.36779 14.0769C5.55556 14.0769 3.74332 14.0769 1.93108 14.0769C1.56863 14.0769 1.45573 14.1957 1.45573 14.5641C1.45573 15.8832 1.45573 17.2082 1.45573 18.5273C1.45573 18.9313 1.56269 19.0383 1.97267 19.0383C2.86393 19.0383 3.74332 19.0383 4.62864 19.0383Z" fill="#7D56A5"/>
</svg>
