<svg width="20" height="23" viewBox="0 0 20 23" fill="none" xmlns="http://www.w3.org/2000/svg">
<path d="M15.3919 22.91C11.2767 22.91 7.16748 22.91 3.05228 22.91C2.98102 22.8922 2.90976 22.8684 2.8385 22.8566C1.12829 22.4943 -0.00591504 20.9326 2.32062e-05 19.2877C0.0237762 14.0976 0.00596145 8.91356 0.00596145 3.72354C0.00596145 3.49195 0.0118997 3.2663 0.0534674 3.0347C0.332565 1.39575 1.829 0.095274 3.46796 0.095274C7.31594 0.0893358 11.1699 0.0893358 15.0238 0.095274C15.7304 0.095274 16.3658 0.362495 16.7043 0.974134C16.9893 1.4967 17.3516 1.58577 17.8504 1.52045C17.8623 1.52045 17.8801 1.52045 17.8919 1.52045C19.038 1.53233 19.9881 2.47651 19.9941 3.62259C20 4.09765 19.9881 4.57271 20 5.04777C20.0119 5.52283 19.8813 5.95632 19.6022 6.34231C19.5072 6.47295 19.5072 6.56796 19.6022 6.6986C19.8813 7.08459 20.006 7.51808 20 7.99314C19.9881 8.45038 19.9941 8.91356 20 9.37081C20.006 9.81618 19.8813 10.2259 19.6259 10.5822C19.519 10.7307 19.5131 10.8435 19.62 10.9979C19.8813 11.3661 20.006 11.7758 20 12.233C19.9941 12.714 20 13.195 20 13.682C19.9941 14.6083 19.3884 15.4219 18.5036 15.7069C18.1651 15.8197 17.8148 15.8019 17.4644 15.8019C17.1497 15.8019 17.1497 15.8019 17.1497 16.1107C17.1497 17.6784 17.1497 19.2402 17.1497 20.8079C17.1497 21.2235 17.0309 21.5977 16.8112 21.9421C16.4727 22.4646 15.9798 22.7615 15.3919 22.91ZM4.31713 11.5086C4.31713 14.7212 4.31713 17.9338 4.31713 21.1463C4.31713 21.467 4.31713 21.467 4.63779 21.467C8.02259 21.467 11.4074 21.467 14.7922 21.467C15.4216 21.467 15.6829 21.2057 15.6829 20.5703C15.6829 14.5311 15.6829 8.48601 15.6829 2.44682C15.6829 1.80549 15.4216 1.55014 14.7744 1.55014C11.4074 1.55014 8.03446 1.55014 4.66748 1.55014C4.31713 1.55014 4.31713 1.55014 4.31713 1.91238C4.31713 5.11309 4.31713 8.30786 4.31713 11.5086ZM2.85632 11.5323C2.85632 8.37318 2.85632 5.21404 2.85632 2.04896C2.85632 1.98957 2.85632 1.93019 2.85632 1.87081C2.86226 1.72235 2.80287 1.70454 2.68411 1.76392C2.39313 1.90644 2.14373 2.09646 1.94183 2.35181C1.59741 2.7853 1.47271 3.28411 1.47271 3.82449C1.47271 5.54658 1.47271 7.26867 1.47271 8.99076C1.47271 12.3874 1.47271 15.7841 1.47271 19.1867C1.47271 20.0596 1.80525 20.7604 2.5891 21.1998C2.84444 21.3423 2.86226 21.3304 2.86226 21.0395C2.85632 17.8684 2.85632 14.7034 2.85632 11.5323ZM17.1437 4.36487C17.1437 4.63209 17.1378 4.89931 17.1437 5.16653C17.1615 5.891 16.9953 5.79599 17.8266 5.78411C18.2304 5.77817 18.5095 5.49314 18.5273 5.08934C18.5452 4.62615 18.5452 4.15703 18.5273 3.68791C18.5155 3.27223 18.2304 3.00501 17.8148 2.97532C17.6663 2.96938 17.5178 2.98126 17.3694 2.96938C17.1912 2.95751 17.1319 3.0347 17.1378 3.20691C17.1497 3.59884 17.1437 3.97888 17.1437 4.36487ZM17.1437 8.65228C17.1437 9.04421 17.1437 9.43613 17.1437 9.82805C17.1437 9.83399 17.1437 9.84587 17.1437 9.85181C17.1319 10.0003 17.1972 10.0715 17.3516 10.0656C17.5 10.0596 17.6485 10.0715 17.7969 10.0656C18.2304 10.0478 18.5214 9.76867 18.5333 9.33518C18.5452 8.88387 18.5452 8.43257 18.5333 7.98126C18.5214 7.55965 18.2364 7.28055 17.8088 7.25679C17.6604 7.25086 17.5119 7.26273 17.3634 7.25086C17.1972 7.24492 17.1378 7.31618 17.1437 7.47651C17.1497 7.86843 17.1437 8.26036 17.1437 8.65228ZM17.1437 12.9338C17.1437 13.3257 17.1497 13.7176 17.1437 14.1095C17.1378 14.2817 17.2091 14.353 17.3813 14.3411C17.5238 14.3352 17.6604 14.3471 17.8029 14.3352C18.2304 14.3114 18.5155 14.0442 18.5333 13.6167C18.5511 13.1594 18.5511 12.6962 18.5333 12.239C18.5214 11.8174 18.2304 11.5442 17.8088 11.5205C17.6782 11.5145 17.5416 11.5264 17.411 11.5145C17.2209 11.4967 17.1437 11.568 17.1497 11.7699C17.1556 12.1618 17.1437 12.5478 17.1437 12.9338Z" fill="#7D56A5"/>
<path d="M10.012 12.9517C8.85403 12.9517 7.69607 12.9517 6.53812 12.9517C5.97992 12.9517 5.69489 12.6726 5.7127 12.1144C5.76021 10.6121 6.43123 9.44817 7.67232 8.61088C7.82671 8.50399 7.86828 8.45648 7.73764 8.28427C7.07256 7.41135 6.93598 6.44342 7.35166 5.42798C7.76733 4.41254 8.55712 3.83059 9.63788 3.67026C10.778 3.50399 11.9122 4.08594 12.4942 5.09544C13.0702 6.09306 12.993 7.35197 12.2685 8.2724C12.1319 8.44461 12.1616 8.50399 12.3279 8.61681C13.5868 9.47192 14.2638 10.6536 14.2875 12.1916C14.2935 12.6608 13.9965 12.9577 13.5215 12.9577C12.3576 12.9517 11.1818 12.9517 10.012 12.9517ZM10.0001 9.39472C8.84809 9.39472 7.79109 10.1251 7.37541 11.2C7.26852 11.4731 7.28634 11.4969 7.57137 11.4969C9.19251 11.4969 10.8196 11.4969 12.4407 11.4969C12.7139 11.4969 12.7317 11.4731 12.6367 11.2178C12.2448 10.1429 11.1521 9.38879 10.0001 9.39472ZM9.99417 7.92798C10.7483 7.93392 11.4075 7.28071 11.4015 6.52061C11.4015 5.76646 10.784 5.137 10.0179 5.11919C9.26971 5.09544 8.61056 5.74864 8.59869 6.51468C8.58681 7.26289 9.23408 7.9161 9.99417 7.92798Z" fill="#7D56A5"/>
<path d="M9.97651 16.5147C8.7948 16.5147 7.61902 16.5206 6.43731 16.5147C5.87318 16.5087 5.52282 15.9327 5.79005 15.4458C5.9385 15.1726 6.17603 15.0598 6.48482 15.0598C7.88624 15.0658 9.28767 15.0598 10.6891 15.0598C11.6511 15.0598 12.619 15.0598 13.581 15.0598C13.9433 15.0598 14.2402 15.333 14.2877 15.6774C14.3352 16.0515 14.1273 16.39 13.777 16.485C13.682 16.5147 13.5691 16.5147 13.4682 16.5147C12.3043 16.5147 11.1404 16.5147 9.97651 16.5147Z" fill="#7D56A5"/>
<path d="M9.98821 19.365C9.29938 19.365 8.61054 19.365 7.9217 19.365C7.45258 19.365 7.13786 19.0741 7.13192 18.6465C7.12598 18.2011 7.44071 17.9102 7.9217 17.9102C9.30532 17.9102 10.6949 17.9102 12.0785 17.9102C12.5535 17.9102 12.8683 18.2071 12.8683 18.6524C12.8623 19.08 12.5476 19.371 12.0785 19.371C11.3837 19.365 10.6889 19.365 9.98821 19.365Z" fill="#7D56A5"/>
</svg>
