<svg width="20" height="21" viewBox="0 0 20 21" fill="none" xmlns="http://www.w3.org/2000/svg">
<g clip-path="url(#clip0_281_832)">
<path d="M10 13C11.3807 13 12.5 11.8807 12.5 10.5C12.5 9.11929 11.3807 8 10 8C8.61929 8 7.5 9.11929 7.5 10.5C7.5 11.8807 8.61929 13 10 13Z" stroke="#7D56A5" stroke-width="2" stroke-linecap="round" stroke-linejoin="round"/>
<path d="M16.1668 12.9999C16.0559 13.2513 16.0228 13.5301 16.0718 13.8004C16.1208 14.0707 16.2497 14.3202 16.4418 14.5166L16.4918 14.5666C16.6468 14.7214 16.7697 14.9052 16.8536 15.1075C16.9375 15.3098 16.9806 15.5267 16.9806 15.7458C16.9806 15.9648 16.9375 16.1817 16.8536 16.384C16.7697 16.5863 16.6468 16.7701 16.4918 16.9249C16.337 17.0799 16.1532 17.2028 15.9509 17.2867C15.7486 17.3706 15.5317 17.4137 15.3127 17.4137C15.0936 17.4137 14.8768 17.3706 14.6744 17.2867C14.4721 17.2028 14.2883 17.0799 14.1335 16.9249L14.0835 16.8749C13.8871 16.6828 13.6376 16.5539 13.3673 16.5049C13.097 16.4559 12.8182 16.489 12.5668 16.5999C12.3204 16.7056 12.1101 16.881 11.9621 17.1045C11.814 17.3281 11.7346 17.5901 11.7335 17.8583V17.9999C11.7335 18.4419 11.5579 18.8659 11.2453 19.1784C10.9328 19.491 10.5089 19.6666 10.0668 19.6666C9.6248 19.6666 9.20088 19.491 8.88832 19.1784C8.57576 18.8659 8.40016 18.4419 8.40016 17.9999V17.9249C8.39371 17.6491 8.30443 17.3816 8.14392 17.1572C7.98342 16.9328 7.75911 16.7618 7.50016 16.6666C7.24882 16.5557 6.97 16.5226 6.69967 16.5716C6.42934 16.6206 6.1799 16.7495 5.9835 16.9416L5.9335 16.9916C5.77871 17.1465 5.59489 17.2695 5.39256 17.3534C5.19023 17.4372 4.97336 17.4804 4.75433 17.4804C4.5353 17.4804 4.31843 17.4372 4.1161 17.3534C3.91377 17.2695 3.72995 17.1465 3.57516 16.9916C3.4202 16.8368 3.29727 16.653 3.2134 16.4507C3.12952 16.2483 3.08635 16.0314 3.08635 15.8124C3.08635 15.5934 3.12952 15.3765 3.2134 15.1742C3.29727 14.9719 3.4202 14.788 3.57516 14.6333L3.62516 14.5833C3.81728 14.3869 3.94615 14.1374 3.99517 13.8671C4.04418 13.5967 4.01109 13.3179 3.90016 13.0666C3.79453 12.8201 3.61913 12.6099 3.39555 12.4618C3.17198 12.3138 2.90999 12.2343 2.64183 12.2333H2.50016C2.05814 12.2333 1.63421 12.0577 1.32165 11.7451C1.00909 11.4325 0.833496 11.0086 0.833496 10.5666C0.833496 10.1246 1.00909 9.70064 1.32165 9.38807C1.63421 9.07551 2.05814 8.89992 2.50016 8.89992H2.57516C2.85099 8.89347 3.1185 8.80418 3.34291 8.64368C3.56732 8.48317 3.73826 8.25886 3.8335 7.99992C3.94443 7.74857 3.97752 7.46976 3.9285 7.19943C3.87948 6.9291 3.75061 6.67965 3.5585 6.48325L3.5085 6.43325C3.35354 6.27846 3.2306 6.09465 3.14673 5.89232C3.06286 5.68999 3.01969 5.47311 3.01969 5.25409C3.01969 5.03506 3.06286 4.81818 3.14673 4.61585C3.2306 4.41352 3.35354 4.22971 3.5085 4.07492C3.66328 3.91996 3.8471 3.79703 4.04943 3.71315C4.25176 3.62928 4.46864 3.58611 4.68766 3.58611C4.90669 3.58611 5.12357 3.62928 5.3259 3.71315C5.52823 3.79703 5.71204 3.91996 5.86683 4.07492L5.91683 4.12492C6.11323 4.31703 6.36268 4.44591 6.63301 4.49492C6.90333 4.54394 7.18215 4.51085 7.4335 4.39992H7.50016C7.74664 4.29428 7.95684 4.11888 8.10491 3.89531C8.25297 3.67173 8.33243 3.40974 8.3335 3.14159V2.99992C8.3335 2.55789 8.50909 2.13397 8.82165 1.82141C9.13421 1.50885 9.55814 1.33325 10.0002 1.33325C10.4422 1.33325 10.8661 1.50885 11.1787 1.82141C11.4912 2.13397 11.6668 2.55789 11.6668 2.99992V3.07492C11.6679 3.34307 11.7474 3.60506 11.8954 3.82864C12.0435 4.05222 12.2537 4.22762 12.5002 4.33325C12.7515 4.44418 13.0303 4.47727 13.3007 4.42826C13.571 4.37924 13.8204 4.25037 14.0168 4.05825L14.0668 4.00825C14.2216 3.85329 14.4054 3.73036 14.6078 3.64649C14.8101 3.56261 15.027 3.51944 15.246 3.51944C15.465 3.51944 15.6819 3.56261 15.8842 3.64649C16.0866 3.73036 16.2704 3.85329 16.4252 4.00825C16.5801 4.16304 16.7031 4.34685 16.7869 4.54918C16.8708 4.75152 16.914 4.96839 16.914 5.18742C16.914 5.40644 16.8708 5.62332 16.7869 5.82565C16.7031 6.02798 16.5801 6.2118 16.4252 6.36659L16.3752 6.41659C16.183 6.61298 16.0542 6.86243 16.0052 7.13276C15.9561 7.40309 15.9892 7.68191 16.1002 7.93325V7.99992C16.2058 8.24639 16.3812 8.4566 16.6048 8.60466C16.8284 8.75273 17.0903 8.83218 17.3585 8.83325H17.5002C17.9422 8.83325 18.3661 9.00885 18.6787 9.32141C18.9912 9.63397 19.1668 10.0579 19.1668 10.4999C19.1668 10.9419 18.9912 11.3659 18.6787 11.6784C18.3661 11.991 17.9422 12.1666 17.5002 12.1666H17.4252C17.157 12.1677 16.895 12.2471 16.6714 12.3952C16.4479 12.5432 16.2725 12.7534 16.1668 12.9999V12.9999Z" stroke="#7D56A5" stroke-width="2" stroke-linecap="round" stroke-linejoin="round"/>
</g>
<defs>
<clipPath id="clip0_281_832">
<rect width="20" height="20" fill="white" transform="translate(0 0.5)"/>
</clipPath>
</defs>
</svg>
